<svg width="400" height="305" viewBox="0 0 400 305" fill="none" xmlns="http://www.w3.org/2000/svg">
  <ellipse cx="200" cy="152" rx="186" ry="138" stroke="#E354A4" stroke-width="14"/>
  <ellipse cx="200" cy="152" rx="170" ry="123" stroke="#A13B74" stroke-width="3"/>
  <circle cx="200" cy="14" r="10" fill="#A13B74"/>
  <circle cx="200" cy="14" r="5" fill="#E354A4"/>
  <circle cx="30" cy="220" r="7" fill="#A13B74"/>
  <circle cx="370" cy="220" r="7" fill="#A13B74"/>
  <path d="m62 40 3.5 7.2 7.9 1.2 -5.8 5.6 1.3 7.9 -7.0 -3.7 -7.0 3.7 1.3 -7.9 -5.8 -5.6 7.9 -1.2Z" fill="#A13B74"/>
  <path d="m338 40 3.5 7.2 7.9 1.2 -5.8 5.6 1.3 7.9 -7.0 -3.7 -7.0 3.7 1.3 -7.9 -5.8 -5.6 7.9 -1.2Z" fill="#A13B74"/>
  <path d="m200 1 4.3 9.0 9.9 1.5 -7.2 7.0 1.6 9.9 -8.7 -4.7 -8.7 4.7 1.6 -9.9 -7.2 -7.0 9.9 -1.5Z" fill="#FDC734"/>
  <path d="m16 142 2.9 6.0 6.6 1.0 -4.8 4.7 1.1 6.6 -5.8 -3.1 -5.8 3.1 1.1 -6.6 -4.8 -4.7 6.6 -1.0Z" fill="#E354A4"/>
  <path d="m384 142 2.9 6.0 6.6 1.0 -4.8 4.7 1.1 6.6 -5.8 -3.1 -5.8 3.1 1.1 -6.6 -4.8 -4.7 6.6 -1.0Z" fill="#E354A4"/>
</svg>
